#!OML:ASF Y:\EmotionMaleHayes\Project 1\Capture day 1\Session 1\Male1.ASF
:FULLY-SPECIFIED
:DEGREES
1548
root -17.4426 16.1601 14.9367 575.174 -61.1042 500.114
lowerback 6.62664 -0.524478 -18.8556
upperback 1.57524 -2.18956 -1.21782
thorax -1.40501 -1.14199 9.42935
lowerneck -19.6943 -5.37149 -4.35662
upperneck 25.3905 -8.76003 6.67972
head 12.1455 -3.67003 1.75864
rclavicle -6.4605e-014 -1.59028e-014
rhumerus -57.8992 -12.6894 -63.3657
rradius 25.6021
rwrist 6.33419
rhand -8.05008 -35.1408
rfingers 7.12502
rthumb 17.8607 -64.3406
lclavicle -6.4605e-014 -1.59028e-014
lhumerus -10.8156 -9.8096 70.3697
lradius 55.9277
lwrist 10.9335
lhand -26.5298 -27.8063
lfingers 7.12502
lthumb 0.0340212 2.17342
rfemur -26.8748 -13.0146 3.83402
rtibia 15.0734
rfoot -16.9258 -18.6231
rtoes 29.2458
lfemur 23.8519 2.96084 -32.7189
ltibia 9.10514
lfoot -18.6996 8.6841
ltoes -34.5375
1549
root -17.609 16.1407 14.8449 574.721 -60.9799 500.491
lowerback 6.36406 -0.610779 -18.7017
upperback 1.72661 -2.21473 -1.16952
thorax -1.08657 -1.19349 9.38512
lowerneck -19.8775 -5.31994 -4.18251
upperneck 25.2512 -8.65821 6.51974
head 12.1031 -3.62071 1.68384
rclavicle 6.5102e-014 1.59028e-014
rhumerus -57.4247 -12.5929 -63.9768
rradius 25.6133
rwrist 6.24145
rhand -7.98436 -35.197
rfingers 7.12502
rthumb 17.9239 -64.391
lclavicle 6.5102e-014 1.59028e-014
lhumerus -11.2644 -9.37208 70.8278
lradius 56.5983
lwrist 11.267
lhand -26.7394 -28.066
lfingers 7.12502
lthumb -0.168412 1.91366
rfemur -27.2151 -14.4102 4.52293
rtibia 17.0784
rfoot -16.1153 -19.1908
rtoes 25.0307
lfemur 24.0541 3.00163 -32.5015
ltibia 10.2844
lfoot -18.7096 8.24733
ltoes -32.8163
1550
root -17.8051 16.1363 14.7475 573.067 -60.4467 501.778
lowerback 6.02451 -0.462535 -18.236
upperback 2.00912 -1.88571 -1.17695
thorax -0.701746 -1.08364 9.08497
lowerneck -20.038 -5.29244 -4.11147
upperneck 25.1394 -8.64006 6.59355
head 12.0914 -3.59135 1.69936
rclavicle -6.34123e-014 -2.38542e-015
rhumerus -57.0887 -12.791 -64.3272
rradius 25.5195
rwrist 6.73117
rhand -8.75219 -35.6999
rfingers 7.12502
rthumb 17.185 -64.96
lclavicle -6.34123e-014 -2.38542e-015
lhumerus -11.7602 -9.23001 71.2415
lradius 57.2267
lwrist 11.7817
lhand -26.8538 -28.4067
lfingers 7.12502
lthumb -0.278858 1.57288
rfemur -27.0251 -15.5976 5.38443
rtibia 18.5812
rfoot -15.3139 -19.4097
rtoes 21.2765
lfemur 24.8234 3.03311 -32.4634
ltibia 11.1654
lfoot -18.6229 8.64625
ltoes -32.3881
1551
root -17.9679 16.1246 14.6477 572.168 -60.452 502.545
lowerback 6.05998 -0.441004 -17.7274
upperback 2.06063 -1.82544 -1.16897
thorax -0.702003 -1.05371 8.8088
lowerneck -20.2809 -5.28694 -3.82221
upperneck 25.3971 -8.68294 6.35827
head 12.2163 -3.60364 1.55074
rclavicle 3.48867e-014 -2.14687e-014
rhumerus -56.9319 -13.1914 -64.582
rradius 25.471
rwrist 7.57788
rhand -9.24537 -36.3469
rfingers 7.12502
rthumb 16.7102 -65.6477
lclavicle 3.48867e-014 -2.14687e-014
lhumerus -12.424 -9.2325 71.7608
lradius 57.8182
lwrist 12.1054
lhand -26.9588 -28.7977
lfingers 7.12502
lthumb -0.380263 1.18174
rfemur -26.6936 -16.6659 6.03583
rtibia 19.2396
rfoot -14.7073 -19.6476
rtoes 23.3395
lfemur 25.0339 2.72898 -32.1536
ltibia 12.5032
lfoot -18.4676 8.70645
ltoes -32.2391
1552
root -18.1459 16.1255 14.5442 570.711 -60.2115 503.75
lowerback 6.20046 -0.37192 -17.2518
upperback 2.02463 -1.72727 -1.05183
thorax -0.860457 -0.984348 8.67294
lowerneck -20.0841 -5.24728 -4.05565
upperneck 24.9506 -8.70501 7.01102
head 12.0535 -3.56592 1.83274
rclavicle -5.59579e-014 2.06736e-014
rhumerus -56.6712 -12.8612 -65.15
rradius 25.4377
rwrist 7.84668
rhand -9.76958 -37.6147
rfingers 7.12502
rthumb 16.2055 -66.9574
lclavicle -5.59579e-014 2.06736e-014
lhumerus -13.5287 -8.96608 72.4681
lradius 58.3611
lwrist 12.2405
lhand -27.1006 -29.2519
lfingers 7.12502
lthumb -0.517271 0.727213
rfemur -25.9143 -17.2764 6.59295
rtibia 19.2713
rfoot -13.9754 -19.0043
rtoes 23.6256
lfemur 25.4667 2.72962 -31.7841
ltibia 13.7325
lfoot -17.8271 8.84725
ltoes -32.0312
1553
root -18.3188 16.1284 14.4394 569.082 -59.9774 505.271
lowerback 6.14645 -0.342651 -16.6495
upperback 2.02999 -1.62329 -0.856515
thorax -0.865726 -0.925898 8.54343
lowerneck -20.9554 -5.21643 -3.46699
upperneck 25.9783 -8.6426 5.9909
head 12.5412 -3.57389 1.3452
rclavicle 2.98177e-015 -9.54166e-015
rhumerus -56.1594 -12.5811 -65.637
rradius 25.3308
rwrist 8.26713
rhand -9.64535 -38.1379
rfingers 7.12502
rthumb 16.3251 -67.4707
lclavicle 2.98177e-015 -9.54166e-015
lhumerus -14.5829 -8.69584 73.1974
lradius 58.8148
lwrist 12.4151
lhand -27.3095 -29.548
lfingers 7.12502
lthumb -0.719055 0.430551
rfemur -25.2105 -17.337 7.19378
rtibia 19.182
rfoot -13.1102 -17.917
rtoes 24.5821
lfemur 25.7528 2.69799 -31.2858
ltibia 15.0039
lfoot -17.1469 9.16725
ltoes -31.703
1554
root -18.4865 16.1344 14.3329 566.898 -59.9699 507.429
lowerback 6.14387 -0.344813 -15.6658
upperback 2.05546 -1.53846 -0.538548
thorax -0.880056 -0.87407 8.33404
lowerneck -20.1652 -5.06546 -3.87553
upperneck 25.2803 -8.43442 6.63862
head 12.1504 -3.47179 1.70909
rclavicle 1.07344e-014 5.24792e-014
rhumerus -55.6297 -12.7441 -65.7365
rradius 25.212
rwrist 9.39265
rhand -8.50431 -36.9256
rfingers 7.12502
rthumb 17.4235 -66.1647
lclavicle 1.07344e-014 5.24792e-014
lhumerus -15.6701 -8.39628 74.0022
lradius 59.201
lwrist 12.5229
lhand -27.4225 -29.7571
lfingers 7.12502
lthumb -0.828194 0.220991
rfemur -24.4808 -17.0756 8.22034
rtibia 19.1338
rfoot -11.6334 -16.6709
rtoes 26.9043
lfemur 25.9364 2.64674 -30.2405
ltibia 16.5213
lfoot -16.529 9.34386
ltoes -30.9761
1555
root -18.6507 16.1455 14.2245 564.219 -60.186 510.185
lowerback 6.28022 -0.400154 -14.3036
upperback 2.01553 -1.5257 -0.145203
thorax -1.03291 -0.842135 7.99795
lowerneck -18.8705 -4.87045 -4.57027
upperneck 23.9372 -8.2176 7.96145
head 11.4651 -3.33472 2.36942
rclavicle -5.57591e-014 2.38542e-014
rhumerus -55.1046 -12.4449 -66.3556
rradius 25.3336
rwrist 9.90929
rhand -7.691 -35.74
rfingers 7.12502
rthumb 18.2061 -64.908
lclavicle -5.57591e-014 2.38542e-014
lhumerus -16.8746 -8.2117 74.7702
lradius 59.4289
lwrist 12.5437
lhand -27.5624 -30.0917
lfingers 7.12502
lthumb -0.963303 -0.114098
rfemur -23.9842 -17.2035 9.9901
rtibia 19.7957
rfoot -10.4591 -15.4941
rtoes 28.1097
lfemur 25.9131 2.68718 -28.5466
ltibia 18.4095
lfoot -15.8729 9.06838
ltoes -28.6962
1556
root -18.8105 16.1581 14.1168 561.922 -60.2238 512.458
lowerback 6.3845 -0.450647 -13.1631
upperback 2.04618 -1.5198 0.0927849
thorax -1.0885 -0.83036 7.61273
lowerneck -20.4307 -4.80163 -3.15074
upperneck 25.6376 -8.20113 6.16902
head 12.2708 -3.35054 1.44715
rclavicle 8.74653e-015 5.88403e-014
rhumerus -54.4498 -11.4288 -67.916
rradius 25.8496
rwrist 9.21761
rhand -7.38202 -35.6418
rfingers 7.12502
rthumb 18.5034 -64.7818
lclavicle 8.74653e-015 5.88403e-014
lhumerus -18.0274 -8.14879 75.4187
lradius 59.5021
lwrist 12.3729
lhand -27.9049 -30.5
lfingers 7.12502
lthumb -1.29408 -0.524211
rfemur -23.5231 -16.9248 11.3567
rtibia 20.6717
rfoot -10.237 -15.0549
rtoes 28.4395
lfemur 25.714 2.86474 -27.0925
ltibia 20.5775
lfoot -14.6922 8.91082
ltoes -26.6524
1557
root -18.9721 16.1742 14.0059 559.621 -59.9261 514.53
lowerback 6.39601 -0.409209 -12.1938
upperback 2.2525 -1.38779 0.245597
thorax -0.930609 -0.78189 7.21752
lowerneck -21.7356 -4.83419 -2.33683
upperneck 26.881 -8.36143 5.22789
head 12.9515 -3.41233 0.896776
rclavicle 5.56597e-015 -2.70347e-014
rhumerus -53.6096 -10.8744 -69.2296
rradius 26.2597
rwrist 9.05666
rhand -6.97867 -35.796
rfingers 7.12502
rthumb 18.8913 -64.8986
lclavicle 5.56597e-015 -2.70347e-014
lhumerus -19.0479 -8.00772 76.0533
lradius 59.4722
lwrist 12.0682
lhand -28.1699 -30.7936
lfingers 7.12502
lthumb -1.55 -0.819472
rfemur -22.7312 -15.8414 12.3812
rtibia 21.3744
rfoot -10.9158 -15.4164
rtoes 29.0096
lfemur 25.5946 3.32805 -25.7894
ltibia 22.8687
lfoot -12.7879 8.91951
ltoes -26.348
